<?xml version="1.0" encoding="utf-8"?>
<!-- Generator: Adobe Illustrator 16.0.0, SVG Export Plug-In . SVG Version: 6.00 Build 0)  -->
<!DOCTYPE svg PUBLIC "-//W3C//DTD SVG 1.1//EN" "http://www.w3.org/Graphics/SVG/1.1/DTD/svg11.dtd">
<svg version="1.1" id="Layer_1" xmlns="http://www.w3.org/2000/svg" xmlns:xlink="http://www.w3.org/1999/xlink" x="0px" y="0px"
	 width="200px" height="50px" viewBox="0 0 200 50" enable-background="new 0 0 200 50" xml:space="preserve">
<g>
	<g>
		<defs>
			<rect id="SVGID_1_" x="1" y="1" width="32" height="22.692"/>
		</defs>
		<clipPath id="SVGID_2_">
			<use xlink:href="#SVGID_1_"  overflow="visible"/>
		</clipPath>
		<path clip-path="url(#SVGID_2_)" fill="#EE9D20" d="M31.011,20.142c0.022-0.002,0.045,0,0.075,0
			c-0.012,0.322-0.032,0.641-0.047,0.959c-0.014,0.32-0.03,0.639-0.049,0.958c-0.02,0.317-0.028,0.636-0.052,0.958
			c-0.025,0.007-0.046,0.013-0.063,0.018c-0.255,0.024-0.51,0.05-0.766,0.076c-0.201,0.021-0.4,0.042-0.6,0.061
			c-0.21,0.021-0.418,0.038-0.626,0.057c-0.237,0.021-0.474,0.042-0.708,0.062c-0.24,0.02-0.481,0.038-0.722,0.055
			c-0.29,0.021-0.582,0.042-0.874,0.063c-0.138,0.01-0.274,0.019-0.414,0.026c-0.326,0.019-0.654,0.038-0.979,0.056
			c-0.399,0.021-0.797,0.043-1.194,0.062c-0.312,0.015-0.624,0.026-0.937,0.038c-0.327,0.014-0.654,0.026-0.98,0.037
			c-0.163,0.005-0.324,0.006-0.487,0.01c-0.295,0.007-0.591,0.016-0.887,0.021c-0.162,0.005-0.323,0.009-0.484,0.01
			c-0.586,0.008-1.17,0.013-1.755,0.016c-0.481,0.005-0.963,0.01-1.445,0.008c-0.593-0.002-1.185-0.008-1.777-0.016
			c-0.411-0.006-0.822-0.014-1.231-0.023c-0.372-0.009-0.743-0.02-1.113-0.031c-0.464-0.015-0.931-0.03-1.396-0.047
			c-0.376-0.016-0.75-0.029-1.124-0.047c-0.487-0.023-0.972-0.046-1.456-0.071c-0.386-0.021-0.771-0.042-1.16-0.064
			c-0.301-0.019-0.606-0.042-0.909-0.062c-0.28-0.02-0.56-0.035-0.838-0.056c-0.271-0.019-0.543-0.04-0.815-0.062
			c-0.236-0.019-0.473-0.037-0.708-0.055c-0.216-0.018-0.433-0.036-0.649-0.056c-0.232-0.021-0.464-0.044-0.696-0.065
			c-0.018-0.001-0.038-0.006-0.072-0.01c-0.007-0.052-0.013-0.095-0.015-0.136c-0.014-0.248-0.025-0.497-0.037-0.747
			c-0.015-0.302-0.032-0.605-0.047-0.908c-0.017-0.308-0.033-0.616-0.048-0.924c-0.003-0.062-0.007-0.123-0.01-0.177
			c0.026-0.032,0.052-0.021,0.074-0.019c0.314,0.031,0.628,0.065,0.942,0.095c0.292,0.028,0.582,0.055,0.874,0.081
			c0.31,0.028,0.62,0.057,0.931,0.084c0.243,0.021,0.488,0.036,0.731,0.057c0.26,0.021,0.521,0.04,0.78,0.059
			c0.137,0.012,0.275,0.022,0.413,0.03c0.317,0.02,0.63,0.04,0.946,0.057c0.359,0.022,0.718,0.045,1.077,0.064
			c0.322,0.018,0.646,0.033,0.969,0.047c0.383,0.019,0.765,0.032,1.147,0.049c0.335,0.011,0.671,0.021,1.006,0.03
			c0.3,0.008,0.599,0.017,0.899,0.023c0.414,0.011,0.829,0.014,1.245,0.025c0.983,0.024,1.966,0.015,2.95,0.018
			c0.25,0,0.497-0.001,0.746-0.005c0.497-0.006,0.996-0.013,1.492-0.023c0.391-0.007,0.782-0.018,1.173-0.03
			c0.469-0.014,0.939-0.029,1.407-0.047c0.363-0.013,0.726-0.029,1.09-0.047c0.44-0.021,0.883-0.04,1.322-0.065
			c0.45-0.027,0.9-0.056,1.349-0.087c0.391-0.025,0.779-0.051,1.171-0.078c0.345-0.026,0.692-0.058,1.037-0.086
			c0.217-0.019,0.433-0.036,0.649-0.057c0.287-0.023,0.574-0.053,0.86-0.084C30.468,20.2,30.738,20.169,31.011,20.142"/>
	</g>
	<g>
		<defs>
			<rect id="SVGID_3_" x="1" y="1" width="32" height="22.692"/>
		</defs>
		<clipPath id="SVGID_4_">
			<use xlink:href="#SVGID_3_"  overflow="visible"/>
		</clipPath>
		<path clip-path="url(#SVGID_4_)" fill="#D41E41" d="M29.154,16.476c0.463,0,0.838,0.373,0.838,0.836
			c0,0.464-0.375,0.839-0.838,0.839c-0.463,0-0.837-0.375-0.837-0.839C28.317,16.849,28.691,16.476,29.154,16.476"/>
	</g>
	<g>
		<defs>
			<rect id="SVGID_5_" x="1" y="1" width="32" height="22.692"/>
		</defs>
		<clipPath id="SVGID_6_">
			<use xlink:href="#SVGID_5_"  overflow="visible"/>
		</clipPath>
		<path clip-path="url(#SVGID_6_)" fill="#D41E41" d="M23.741,14.8c0.584,0,1.058,0.749,1.058,1.676
			c0,0.924-0.474,1.675-1.058,1.675c-0.583,0-1.057-0.751-1.057-1.675C22.685,15.549,23.158,14.8,23.741,14.8"/>
	</g>
	<g>
		<defs>
			<rect id="SVGID_7_" x="1" y="1" width="32" height="22.692"/>
		</defs>
		<clipPath id="SVGID_8_">
			<use xlink:href="#SVGID_7_"  overflow="visible"/>
		</clipPath>
		<path clip-path="url(#SVGID_8_)" fill="#13A2A4" d="M18.465,15.923c-0.012,0.027-0.026,0.054-0.046,0.078
			C18.437,15.974,18.451,15.947,18.465,15.923"/>
	</g>
	<g>
		<defs>
			<rect id="SVGID_9_" x="1" y="1" width="32" height="22.692"/>
		</defs>
		<clipPath id="SVGID_10_">
			<use xlink:href="#SVGID_9_"  overflow="visible"/>
		</clipPath>
		<path clip-path="url(#SVGID_10_)" fill="#D41E41" d="M9.823,14.8c0.583,0,1.057,0.749,1.057,1.676
			c0,0.924-0.473,1.675-1.057,1.675S8.766,17.4,8.766,16.476C8.766,15.549,9.239,14.8,9.823,14.8"/>
	</g>
	<g>
		<defs>
			<rect id="SVGID_11_" x="1" y="1" width="32" height="22.692"/>
		</defs>
		<clipPath id="SVGID_12_">
			<use xlink:href="#SVGID_11_"  overflow="visible"/>
		</clipPath>
		<path clip-path="url(#SVGID_12_)" fill="#D41E41" d="M4.41,16.476c0.463,0,0.837,0.373,0.837,0.836
			c0,0.464-0.374,0.839-0.837,0.839c-0.463,0-0.837-0.375-0.837-0.839C3.573,16.849,3.947,16.476,4.41,16.476"/>
	</g>
	<g>
		<defs>
			<rect id="SVGID_13_" x="1" y="1" width="32" height="22.692"/>
		</defs>
		<clipPath id="SVGID_14_">
			<use xlink:href="#SVGID_13_"  overflow="visible"/>
		</clipPath>
		<path clip-path="url(#SVGID_14_)" fill="#F2B61A" d="M32.98,12.176c-0.11-0.449-0.519-0.787-0.979-0.81
			c-0.279-0.013-0.532,0.055-0.755,0.227c-0.458,0.354-0.565,1.003-0.245,1.487c0.024,0.035,0.049,0.07,0.072,0.106
			c-0.065,0.064-2.251,1.916-3.411,2.708c-0.517,0.353-0.689-0.128-0.724-0.41c-0.204-1.712-0.409-3.424-0.616-5.142
			c0.04-0.005,0.07-0.01,0.1-0.01c0.555,0.015,1.174-0.381,1.307-1.088c0.107-0.576-0.162-1.123-0.647-1.401
			c-0.692-0.397-1.615-0.111-1.917,0.693c-0.21,0.56-0.015,1.159,0.407,1.5c0.037,0.03,0.074,0.059,0.112,0.09
			c-0.013,0.017-0.021,0.031-0.031,0.041c-1.164,1.159-2.433,2.615-3.72,3.636c-0.546,0.436-0.634,0.177-0.796-0.143
			c-1.15-2.319-2.439-4.912-3.611-7.268l1.93-2.274c0.071-0.083,0.071-0.205,0-0.288L17.12,1.078
			c-0.038-0.043-0.09-0.071-0.148-0.077C16.965,1,16.958,1,16.95,1c-0.065,0-0.127,0.029-0.169,0.078L14.446,3.83
			c-0.07,0.083-0.07,0.206,0,0.288l1.899,2.239c-0.785,1.52-3.016,5.789-3.855,7.379c-0.191,0.365-0.608,0.344-0.723,0.229
			c-0.304-0.3-0.605-0.603-0.909-0.902c-0.364-0.361-0.73-0.722-1.094-1.084c-0.374-0.369-0.748-0.738-1.122-1.107
			c-0.218-0.216-0.438-0.433-0.658-0.647c-0.023-0.024-0.043-0.047-0.065-0.069c0.016-0.045,0.055-0.059,0.085-0.084
			C8.251,9.87,8.412,9.614,8.477,9.3c0.156-0.768-0.36-1.451-1.045-1.58C6.665,7.575,6.019,8.07,5.873,8.719
			C5.767,9.188,5.878,9.605,6.21,9.956c0.238,0.251,0.535,0.384,0.88,0.405c0.023,0.002,0.047,0.003,0.077,0.003
			c0,0.025,0.003,0.044,0.002,0.061c-0.046,0.285-0.092,0.569-0.138,0.854c-0.05,0.314-0.102,0.63-0.154,0.945
			c-0.051,0.316-0.103,0.631-0.155,0.948c-0.052,0.316-0.103,0.63-0.154,0.946c-0.05,0.312-0.102,0.622-0.152,0.935
			c-0.052,0.321-0.076,0.646-0.157,0.957C6.14,16.476,5.6,15.923,5.325,15.675c-0.859-0.778-1.719-1.556-2.583-2.337
			c0.029-0.026,0.05-0.047,0.074-0.065c0.211-0.171,0.345-0.389,0.396-0.656c0.115-0.634-0.297-1.171-0.846-1.288
			c-0.622-0.134-1.193,0.263-1.318,0.843C1.039,12.212,1.034,12.25,1,12.275v0.262c0.035,0.031,0.04,0.074,0.05,0.116
			c0.063,0.278,0.213,0.5,0.446,0.663c0.18,0.125,0.379,0.193,0.599,0.194c0.023,0,0.047,0.003,0.071,0.005
			c0.003,0.002,0.006,0.006,0.02,0.014c0.035,0.382,0.057,0.77,0.087,1.159c0.03,0.386,0.055,0.772,0.083,1.157
			c0.028,0.391,0.059,0.78,0.087,1.17c0.029,0.386,0.052,0.771,0.082,1.157c0.031,0.39,0.052,0.779,0.089,1.17
			c0.038,0.007,0.068,0.015,0.099,0.017c0.3,0.027,0.599,0.054,0.897,0.08c0.333,0.028,0.667,0.057,1.002,0.083
			c0.264,0.021,0.529,0.037,0.792,0.057c0.28,0.021,0.558,0.041,0.839,0.061c0.146,0.011,0.29,0.021,0.436,0.029
			c0.324,0.02,0.647,0.039,0.969,0.057c0.339,0.019,0.678,0.039,1.019,0.058c0.27,0.014,0.543,0.026,0.815,0.038
			c0.379,0.018,0.756,0.032,1.135,0.047c0.43,0.017,0.861,0.032,1.29,0.049c0.359,0.013,0.718,0.027,1.077,0.038
			c0.173,0.004,0.347,0.007,0.52,0.009c0.352,0.007,0.703,0.015,1.055,0.021c0.185,0.006,0.371,0.009,0.558,0.011
			c0.452,0.003,0.907,0.009,1.362,0.01c0.615,0.004,1.23,0.006,1.848,0.006c0.395-0.002,0.79-0.004,1.184-0.009
			c0.385-0.007,0.768-0.016,1.149-0.024c0.368-0.008,0.734-0.013,1.101-0.023c0.34-0.011,0.679-0.025,1.018-0.038
			c0.161-0.007,0.324-0.009,0.484-0.016c0.436-0.021,0.87-0.038,1.302-0.06c0.419-0.021,0.836-0.044,1.254-0.069
			c0.314-0.016,0.631-0.035,0.946-0.054c0.376-0.028,0.755-0.058,1.134-0.087c0.24-0.019,0.479-0.036,0.719-0.055
			c0.222-0.02,0.439-0.041,0.661-0.062c0.199-0.018,0.4-0.034,0.601-0.055c0.213-0.021,0.424-0.043,0.638-0.063
			c0.105-0.013,0.211-0.022,0.318-0.033c0.039-0.005,0.077-0.009,0.114-0.014c0.023-0.055,0.026-0.104,0.032-0.155
			c0.046-0.375,0.092-0.753,0.139-1.128c0.044-0.361,0.086-0.722,0.129-1.082c0.036-0.29,0.072-0.581,0.107-0.869
			c0.035-0.287,0.069-0.574,0.104-0.858c0.035-0.294,0.073-0.589,0.108-0.883c0.026-0.227,0.054-0.453,0.082-0.682
			c0.005-0.043,0.014-0.085,0.018-0.125c0.047-0.023,0.085-0.006,0.123-0.003c0.365,0.036,0.677-0.072,0.935-0.337
			c0.127-0.133,0.222-0.285,0.257-0.472c0.001-0.01,0.011-0.018,0.018-0.028v-0.521C32.993,12.195,32.983,12.188,32.98,12.176
			 M4.376,18.151c-0.462,0-0.837-0.375-0.837-0.839c0-0.463,0.375-0.836,0.837-0.836c0.463,0,0.837,0.373,0.837,0.836
			C5.213,17.776,4.839,18.151,4.376,18.151 M9.789,18.151c-0.583,0-1.057-0.751-1.057-1.675c0-0.927,0.473-1.676,1.057-1.676
			s1.057,0.749,1.057,1.676C10.846,17.4,10.373,18.151,9.789,18.151 M23.708,18.151c-0.584,0-1.057-0.751-1.057-1.675
			c0-0.927,0.473-1.676,1.057-1.676c0.583,0,1.056,0.749,1.056,1.676C24.764,17.4,24.291,18.151,23.708,18.151 M29.12,18.151
			c-0.462,0-0.836-0.375-0.836-0.839c0-0.463,0.374-0.836,0.836-0.836c0.464,0,0.838,0.373,0.838,0.836
			C29.958,17.776,29.584,18.151,29.12,18.151"/>
	</g>
	<g>
		<defs>
			<rect id="SVGID_15_" x="1" y="1" width="32" height="22.692"/>
		</defs>
		<clipPath id="SVGID_16_">
			<use xlink:href="#SVGID_15_"  overflow="visible"/>
		</clipPath>
		<path clip-path="url(#SVGID_16_)" fill="#D41E41" d="M18.766,16.37l-1.708-2.013c-0.027-0.032-0.066-0.052-0.107-0.056
			c-0.005-0.002-0.012-0.002-0.018-0.002c-0.048,0-0.092,0.021-0.123,0.058l-1.708,2.013c-0.051,0.062-0.051,0.15,0,0.211
			l1.708,2.013c0.031,0.037,0.075,0.059,0.123,0.059c0.005,0,0.012,0,0.018-0.002c0.042-0.003,0.08-0.024,0.107-0.057l1.708-2.013
			C18.817,16.52,18.817,16.431,18.766,16.37"/>
	</g>
</g>
<path fill-rule="evenodd" clip-rule="evenodd" fill="#D3D2D1" d="M44.833,19v-5h-1v-2h2l3,4v-5h-1V8h3v3l4,3l2-6V6h-1V4l2-2h1l2,2v2
	h-1v2l2,6l4-3v-1V8h3v3h-1v5l3-5h2v2h-1v6H44.833z"/>
<path fill-rule="evenodd" clip-rule="evenodd" fill="#C0BFBE" d="M44.833,19.692h27v3h-27V19.692z"/>
<path fill-rule="evenodd" clip-rule="evenodd" fill="#F36D2B" d="M87.5,19v-5h-1v-2h2l3,4v-5h-1V8h3v3l4,3l2-6V6h-1V4l2-2h1l2,2v2
	h-1v2l2,6l4-3v-1V8h3v3h-1v5l3-5h2v2h-1v6H87.5z"/>
<path fill-rule="evenodd" clip-rule="evenodd" fill="#D95D1F" d="M87.5,19.692h27v3h-27V19.692z"/>
</svg>
